<?xml version="1.0" encoding="UTF-8" standalone="no"?>
<svg
   xmlns:dc="http://purl.org/dc/elements/1.1/"
   xmlns:cc="http://creativecommons.org/ns#"
   xmlns:rdf="http://www.w3.org/1999/02/22-rdf-syntax-ns#"
   xmlns:svg="http://www.w3.org/2000/svg"
   xmlns="http://www.w3.org/2000/svg"
   xmlns:sodipodi="http://sodipodi.sourceforge.net/DTD/sodipodi-0.dtd"
   xmlns:inkscape="http://www.inkscape.org/namespaces/inkscape"
   version="1.0"
   width="444.000000pt"
   height="169.000000pt"
   viewBox="0 0 444.000000 169.000000"
   preserveAspectRatio="xMidYMid meet"
   id="svg3043"
   inkscape:version="0.48.4 r9939"
   sodipodi:docname="logo.svg"
   inkscape:export-filename="/home/sina/Desktop/liveos/public/img/logo.png"
   inkscape:export-xdpi="90"
   inkscape:export-ydpi="90">
  <defs
     id="defs3061" />
  <sodipodi:namedview
     pagecolor="#ffffff"
     bordercolor="#666666"
     borderopacity="1"
     objecttolerance="10"
     gridtolerance="10"
     guidetolerance="10"
     inkscape:pageopacity="0"
     inkscape:pageshadow="2"
     inkscape:window-width="1317"
     inkscape:window-height="744"
     id="namedview3059"
     showgrid="false"
     inkscape:zoom="1.0378378"
     inkscape:cx="393.41487"
     inkscape:cy="-6.0348661"
     inkscape:window-x="1415"
     inkscape:window-y="24"
     inkscape:window-maximized="1"
     inkscape:current-layer="g3047" />
  <metadata
     id="metadata3045">
Created by potrace 1.11, written by Peter Selinger 2001-2013
<rdf:RDF>
  <cc:Work
     rdf:about="">
    <dc:format>image/svg+xml</dc:format>
    <dc:type
       rdf:resource="http://purl.org/dc/dcmitype/StillImage" />
    <dc:title></dc:title>
  </cc:Work>
</rdf:RDF>
</metadata>
  <g
     transform="translate(0.000000,169.000000) scale(0.100000,-0.100000)"
     fill="#000000"
     stroke="none"
     id="g3047">
    <path
       d="m 1155.3333,1664.5833 c -17,-8 -47,-29 -68,-46 -41,-34 -162.99998,-180 -178.99998,-215 -16,-35 -27,-27 -27,17 0,85 -64,200 -111,200 -47,0 -143,-140 -198,-290 -45,-123 -99,-354.99997 -86,-367.99997 7,-7 123,86.99997 145,117.99997 11,16 32,76 46,134 15,58 30,104 34,101 4,-3 11,-89 14,-192 4,-104 8,-201.99997 11,-219.99997 3,-31 1,-33 -52,-53 -48,-18 -68,-20 -139,-14 l -83,7 -71,-69 -72,-69 4,-50 c 3,-48 0,-54 -44,-104 -59,-68 -83,-140 -74,-220 20,-157 22,-141 -29,-198 -26,-29 -44,-52.999997 -40,-52.999997 23,0 109,55.999997 132,86.999997 27,36 28,39 26,152 -3,109 10,211 26,211 11,0 45,-40 76,-90 64,-103 81,-123 139,-167 34,-25 89,-59 123,-74 110,-51 188,-35 272,56 48,52 66,88 91.99998,190 22,82 23,121 7,217 l -11,70 56,49 c 63,56 72,78 82,191 4,42.99997 10,79.99997 14,82.99997 5,2 11,-72.99997 15,-167.99997 21,-531 97,-778 264,-854.999997 47,-21 64,-24.0000002 126,-19 106,7 189,38 321,120.999997 127,79 362,261 457,354 104,101 42,74 -114,-51 -165,-132 -342,-232 -483,-272 -157,-45 -279,26 -345,203 -50,132 -60,216 -70,597 -10,371.99997 -21,486.99997 -59,597.99997 -24,70 -56,117 -79,117 -9,0 -31,-7 -48,-16 z m -61,-169 c 20,-20 32,-60 52,-172 l 17,-92 -30,-38 c -20,-26 -40,-74 -62,-153 -55,-195.99997 -64,-214.99997 -114.99998,-238.99997 -25,-12 -49,-21 -54,-21 -15,0 -41,-42 -41,-65 0,-19 -5,-20 -75,-17 l -75,4 0,-46 0,-46 69,0 70,0 3,38 c 2,29 8,15 27,-72 30,-142 21,-222 -33,-283 -43,-50 -138,-10 -248,105 -60,62 -80,93 -110,162 -41,97 -52,139 -40,158 5,7 47,19 93,27 147,23 158,28 270,102 75,49 121,91 113,104 -2,4 -17,4 -32,-2 l -27,-10 22,23 c 32,34 50,83.99997 79,215.99997 42.99998,201 83.99998,332 102.99998,332 5,0 16,-7 24,-15 z"
       id="path3049"
       inkscape:connector-curvature="0" />
    <path
       d="m 820.33332,464.58333 c -41,-27 -59,-34 -79,-29 -64,17 -96,17 -110,0 -13,-15 -11,-20 13,-41 34,-29 80,-31 152,-6 49,17 95,65 95,98 0,21 -13,17 -71,-22 z"
       id="path3051"
       inkscape:connector-curvature="0" />
    <path
       d="m 2406.3333,1237.5833 c -53,-18 -115,-67 -150,-120 -46,-69 -86,-169.99997 -92,-231.99997 -9,-88 45,-127 154,-110 40,6 55,15 105,68 32,33 58,65 58,70 0,5 -22,7 -53,3 -148,-19 -164,79 -41,249.99997 30,42 54,78 52,79 -2,1 -16,-2 -33,-8 z"
       id="path3053"
       inkscape:connector-curvature="0" />
    <path
       d="m 1560.3333,1187.5833 c -51,-34 -95,-117 -145,-274.99997 -25,-79 -44,-146 -42,-148 2,-2 28,10 57,27 37,21 57,41 67,65 13,32 18,35 51,32 25,-2 42,-11 55,-29 29,-38 140,-501 150,-625 l 3,-32 73,69 73,69 -26,87 c -15,49 -49,180 -76,293 -73,304.99997 -122,439.99997 -171,473.99997 -29,20 -29,20 -69,-7 z"
       id="path3055"
       inkscape:connector-curvature="0" />
    <path
       d="m 2081.3333,1153.5833 c -125,-94 -162,-154.99997 -175,-290.99997 -7,-66 -6,-73 34,-161 51,-113 53,-152 10,-210 -17,-24 -29,-44 -27,-46 2,-2 30,10 63,26 110,56 173,137 161,209 -3,21 -26,84 -51,141 -24,57 -45,115 -45,128 0,13 15,47 34,74.99997 43,65 86,147 86,163 0,24 -28,13 -90,-34 z"
       id="path3057"
       inkscape:connector-curvature="0" />
    <rect
       style="fill:#000000;fill-opacity:1"
       id="rect3067"
       width="158.02083"
       height="88.645813"
       x="506.74994"
       y="-690.47919"
       transform="scale(1,-1)" />
    <text
       xml:space="preserve"
       style="font-size:320px;font-style:normal;font-weight:normal;line-height:125%;letter-spacing:0px;word-spacing:0px;fill:#000000;fill-opacity:1;stroke:none;font-family:Sans"
       x="3576.9277"
       y="-199.11258"
       id="text3069"
       sodipodi:linespacing="125%"
       transform="scale(1,-1)"><tspan
         sodipodi:role="line"
         id="tspan3071"
         x="3576.9277"
         y="-199.11258"
         style="font-size:288px;font-style:normal;font-variant:normal;font-weight:normal;font-stretch:normal;fill:#aa0000;font-family:Ubuntu;-inkscape-font-specification:Ubuntu">Live!</tspan></text>
    <text
       xml:space="preserve"
       style="font-size:320px;font-style:normal;font-weight:normal;line-height:125%;letter-spacing:0px;word-spacing:0px;fill:#000000;fill-opacity:1;stroke:none;font-family:Sans"
       x="2447.625"
       y="-1287.8751"
       id="text3078"
       sodipodi:linespacing="125%"
       transform="scale(1,-1)"><tspan
         sodipodi:role="line"
         id="tspan3080"
         x="2447.625"
         y="-1287.8751"
         style="font-size:288px;font-style:italic;font-variant:normal;font-weight:normal;font-stretch:normal;font-family:Ubuntu;-inkscape-font-specification:Ubuntu Italic">Micro</tspan><tspan
         sodipodi:role="line"
         x="2447.625"
         y="-927.87512"
         id="tspan3082"
         style="font-size:288px;font-style:italic;font-variant:normal;font-weight:normal;font-stretch:normal;font-family:Ubuntu;-inkscape-font-specification:Ubuntu Italic">  Architecture</tspan><tspan
         sodipodi:role="line"
         x="2447.625"
         y="-567.87512"
         id="tspan3084"
         style="font-size:288px;font-style:italic;font-variant:normal;font-weight:normal;font-stretch:normal;font-family:Ubuntu;-inkscape-font-specification:Ubuntu Italic">     Santa</tspan><tspan
         sodipodi:role="line"
         x="2447.625"
         y="-207.87512"
         id="tspan3086"
         style="font-size:288px;font-style:italic;font-variant:normal;font-weight:normal;font-stretch:normal;font-family:Ubuntu;-inkscape-font-specification:Ubuntu Italic">       Cruz</tspan></text>
  </g>
</svg>
